<?xml version="1.0" encoding="UTF-8"?>
<svg xmlns="http://www.w3.org/2000/svg" xmlns:xlink="http://www.w3.org/1999/xlink" width="16px" height="16px" viewBox="0 0 16 16" version="1.1">
<g id="surface1">
<path style=" stroke:none;fill-rule:nonzero;fill:rgb(0%,0%,100%);fill-opacity:1;" d="M 8 0.75 C 7.015625 2.25 6.035156 3.75 6.035156 5.75 C 6.035156 7.523438 7.195312 9.300781 7.457031 10.375 L 8.542969 10.375 C 8.804688 9.300781 9.964844 7.523438 9.964844 5.75 C 9.964844 3.75 8.984375 2.25 8 0.75 Z M 3.082031 6.4375 C 1.605469 6.4375 0.625 7.4375 0.625 8.9375 C 0.625 9.9375 1.316406 10.921875 2.589844 10.9375 C 2.097656 10.4375 2.589844 8.9375 3.574219 8.9375 C 4.570312 8.9375 5.34375 9.621094 5.738281 10.375 L 6.796875 10.375 C 6.367188 8.890625 5.261719 6.4375 3.082031 6.4375 Z M 12.917969 6.4375 C 10.738281 6.4375 9.632812 8.890625 9.203125 10.375 L 10.261719 10.375 C 10.65625 9.621094 11.429688 8.9375 12.425781 8.9375 C 13.410156 8.9375 13.902344 10.4375 13.410156 10.9375 C 14.683594 10.921875 15.375 9.9375 15.375 8.9375 C 15.375 7.4375 14.390625 6.4375 12.917969 6.4375 Z M 4.785156 10.9375 C 3.574219 10.9375 3.082031 11.4375 3.082031 12.4375 C 3.082031 12.9375 3.574219 13.9375 4.558594 13.9375 C 5.664062 13.9375 6.492188 13.09375 6.839844 12.25 L 5.722656 12.25 C 5.578125 12.363281 5.363281 12.4375 5.050781 12.4375 C 4.558594 12.4375 4.066406 11.4375 4.785156 10.9375 Z M 5.960938 10.9375 C 5.960938 10.941406 5.960938 10.941406 5.964844 10.945312 C 5.546875 11.011719 5.566406 11.671875 6.019531 11.6875 L 9.980469 11.6875 C 10.433594 11.671875 10.453125 11.011719 10.035156 10.945312 C 10.039062 10.941406 10.039062 10.941406 10.039062 10.9375 Z M 11.214844 10.9375 C 11.933594 11.4375 11.441406 12.4375 10.949219 12.4375 C 10.636719 12.4375 10.421875 12.363281 10.277344 12.25 L 9.160156 12.25 C 9.507812 13.09375 10.335938 13.9375 11.441406 13.9375 C 12.425781 13.9375 12.917969 12.9375 12.917969 12.4375 C 12.917969 11.4375 12.425781 10.9375 11.214844 10.9375 Z M 7.507812 12.25 C 7.015625 12.75 7.015625 13.75 6.523438 14.25 L 7.507812 13.75 C 7.507812 14.25 7.507812 14.75 8 15.25 C 8.492188 14.75 8.492188 14.25 8.492188 13.75 L 9.476562 14.25 C 8.984375 13.75 8.984375 12.75 8.492188 12.25 Z M 7.507812 12.25 "/>
</g>
</svg>
